<mxfile host="app.diagrams.net" agent="Mozilla/5.0 (X11; Linux x86_64; rv:109.0) Gecko/20100101 Firefox/115.0" version="24.7.16">
  <diagram name="Page-1" id="pIJ1ZQ_ZNmlC9Ujet68F">
    <mxGraphModel dx="1434" dy="871" grid="1" gridSize="10" guides="1" tooltips="1" connect="1" arrows="1" fold="1" page="1" pageScale="1" pageWidth="1169" pageHeight="827" math="0" shadow="0">
      <root>
        <mxCell id="0" />
        <mxCell id="1" parent="0" />
        <mxCell id="fpEOohyaUf4AS9DzYO2--16" value="" style="verticalLabelPosition=top;verticalAlign=bottom;html=1;shape=mxgraph.basic.rect;fillColor2=none;strokeWidth=3;size=20;indent=100;fillColor=#d5e8d4;strokeColor=#82b366;align=right;horizontal=1;labelPosition=left;labelBackgroundColor=#ffffff;" vertex="1" parent="1">
          <mxGeometry x="36.5" y="320" width="1703.5" height="820" as="geometry" />
        </mxCell>
        <mxCell id="fpEOohyaUf4AS9DzYO2--2" value="&lt;b&gt;Instruccions abans de la sentència IF&lt;/b&gt;" style="rounded=0;whiteSpace=wrap;html=1;fillColor=#ffe6cc;strokeColor=#d79b00;strokeWidth=3;" vertex="1" parent="1">
          <mxGeometry x="316" y="160" width="196" height="60" as="geometry" />
        </mxCell>
        <mxCell id="fpEOohyaUf4AS9DzYO2--3" value="&lt;b&gt;condition1&lt;/b&gt;" style="strokeWidth=3;html=1;shape=mxgraph.flowchart.decision;whiteSpace=wrap;fillColor=#dae8fc;strokeColor=#6c8ebf;" vertex="1" parent="1">
          <mxGeometry x="344" y="370" width="140" height="70" as="geometry" />
        </mxCell>
        <mxCell id="fpEOohyaUf4AS9DzYO2--4" value="" style="endArrow=classic;html=1;rounded=0;entryX=0.5;entryY=0;entryDx=0;entryDy=0;entryPerimeter=0;fillColor=#dae8fc;strokeColor=#6c8ebf;strokeWidth=3;" edge="1" parent="1" source="fpEOohyaUf4AS9DzYO2--2" target="fpEOohyaUf4AS9DzYO2--3">
          <mxGeometry width="50" height="50" relative="1" as="geometry">
            <mxPoint x="390" y="570" as="sourcePoint" />
            <mxPoint x="540" y="380" as="targetPoint" />
          </mxGeometry>
        </mxCell>
        <mxCell id="fpEOohyaUf4AS9DzYO2--25" style="edgeStyle=orthogonalEdgeStyle;rounded=0;orthogonalLoop=1;jettySize=auto;html=1;exitX=0.5;exitY=1;exitDx=0;exitDy=0;strokeWidth=3;fillColor=#dae8fc;strokeColor=#6c8ebf;" edge="1" parent="1" source="fpEOohyaUf4AS9DzYO2--5" target="fpEOohyaUf4AS9DzYO2--7">
          <mxGeometry relative="1" as="geometry">
            <Array as="points">
              <mxPoint x="178" y="1090" />
              <mxPoint x="414" y="1090" />
            </Array>
          </mxGeometry>
        </mxCell>
        <mxCell id="fpEOohyaUf4AS9DzYO2--5" value="&lt;b&gt;Bloc de codi de la sentència IF&lt;br&gt;&lt;/b&gt;" style="rounded=0;whiteSpace=wrap;html=1;fillColor=#ffe6cc;strokeColor=#d79b00;strokeWidth=3;" vertex="1" parent="1">
          <mxGeometry x="80" y="510" width="196" height="60" as="geometry" />
        </mxCell>
        <mxCell id="fpEOohyaUf4AS9DzYO2--6" value="&lt;b&gt;true&lt;/b&gt;" style="endArrow=classic;html=1;rounded=0;exitX=0;exitY=0.5;exitDx=0;exitDy=0;exitPerimeter=0;fillColor=#dae8fc;strokeColor=#6c8ebf;jumpSize=20;strokeWidth=3;labelBackgroundColor=#d5e8d4;edgeStyle=orthogonalEdgeStyle;" edge="1" parent="1" source="fpEOohyaUf4AS9DzYO2--3" target="fpEOohyaUf4AS9DzYO2--5">
          <mxGeometry x="-0.2941" y="26" width="50" height="50" relative="1" as="geometry">
            <mxPoint x="360" y="570" as="sourcePoint" />
            <mxPoint x="410" y="520" as="targetPoint" />
            <mxPoint as="offset" />
          </mxGeometry>
        </mxCell>
        <mxCell id="fpEOohyaUf4AS9DzYO2--7" value="&lt;b&gt;Instruccions després de la sentència IF&lt;/b&gt;" style="rounded=0;whiteSpace=wrap;html=1;fillColor=#ffe6cc;strokeColor=#d79b00;strokeWidth=3;" vertex="1" parent="1">
          <mxGeometry x="316" y="1230" width="196" height="60" as="geometry" />
        </mxCell>
        <mxCell id="fpEOohyaUf4AS9DzYO2--18" value="&lt;div&gt;&lt;b&gt;Condicional múltiple&lt;br&gt;&lt;/b&gt;&lt;/div&gt;" style="text;html=1;align=center;verticalAlign=middle;resizable=0;points=[];autosize=1;strokeColor=none;fillColor=none;" vertex="1" parent="1">
          <mxGeometry x="1600" y="290" width="140" height="30" as="geometry" />
        </mxCell>
        <mxCell id="fpEOohyaUf4AS9DzYO2--19" value="&lt;b&gt;1&lt;/b&gt;" style="ellipse;whiteSpace=wrap;html=1;aspect=fixed;fillColor=#f8cecc;strokeColor=#b85450;" vertex="1" parent="1">
          <mxGeometry x="490" y="200" width="30" height="30" as="geometry" />
        </mxCell>
        <mxCell id="fpEOohyaUf4AS9DzYO2--20" value="&lt;span&gt;2&lt;/span&gt;" style="ellipse;whiteSpace=wrap;html=1;aspect=fixed;fillColor=#f8cecc;strokeColor=#b85450;fontStyle=1" vertex="1" parent="1">
          <mxGeometry x="260" y="555" width="30" height="30" as="geometry" />
        </mxCell>
        <mxCell id="fpEOohyaUf4AS9DzYO2--24" value="&lt;b&gt;false&lt;/b&gt;" style="endArrow=classic;html=1;rounded=0;fillColor=#dae8fc;strokeColor=#6c8ebf;jumpSize=20;strokeWidth=3;labelBackgroundColor=#d5e8d4;edgeStyle=orthogonalEdgeStyle;exitX=1;exitY=0.5;exitDx=0;exitDy=0;exitPerimeter=0;entryX=0.5;entryY=0;entryDx=0;entryDy=0;entryPerimeter=0;" edge="1" parent="1" source="fpEOohyaUf4AS9DzYO2--3" target="fpEOohyaUf4AS9DzYO2--30">
          <mxGeometry x="-0.7099" y="-25" width="50" height="50" relative="1" as="geometry">
            <mxPoint x="490" y="410" as="sourcePoint" />
            <mxPoint x="648" y="510" as="targetPoint" />
            <mxPoint as="offset" />
          </mxGeometry>
        </mxCell>
        <mxCell id="fpEOohyaUf4AS9DzYO2--30" value="&lt;b&gt;condition2&lt;/b&gt;" style="strokeWidth=3;html=1;shape=mxgraph.flowchart.decision;whiteSpace=wrap;fillColor=#dae8fc;strokeColor=#6c8ebf;" vertex="1" parent="1">
          <mxGeometry x="838" y="505" width="140" height="70" as="geometry" />
        </mxCell>
        <mxCell id="fpEOohyaUf4AS9DzYO2--45" style="edgeStyle=orthogonalEdgeStyle;rounded=0;orthogonalLoop=1;jettySize=auto;html=1;entryX=0.5;entryY=0;entryDx=0;entryDy=0;exitX=0.5;exitY=1;exitDx=0;exitDy=0;strokeWidth=3;fillColor=#dae8fc;strokeColor=#6c8ebf;" edge="1" parent="1" source="fpEOohyaUf4AS9DzYO2--31" target="fpEOohyaUf4AS9DzYO2--7">
          <mxGeometry relative="1" as="geometry">
            <Array as="points">
              <mxPoint x="708" y="1090" />
              <mxPoint x="414" y="1090" />
            </Array>
          </mxGeometry>
        </mxCell>
        <mxCell id="fpEOohyaUf4AS9DzYO2--31" value="&lt;b&gt;Bloc de codi de la sentència&lt;br&gt;IF-ELSE (1)&lt;br&gt;&lt;/b&gt;" style="rounded=0;whiteSpace=wrap;html=1;fillColor=#ffe6cc;strokeColor=#d79b00;strokeWidth=3;" vertex="1" parent="1">
          <mxGeometry x="610" y="650" width="196" height="60" as="geometry" />
        </mxCell>
        <mxCell id="fpEOohyaUf4AS9DzYO2--32" value="3" style="ellipse;whiteSpace=wrap;html=1;aspect=fixed;fillColor=#f8cecc;strokeColor=#b85450;fontStyle=1" vertex="1" parent="1">
          <mxGeometry x="790" y="695" width="30" height="30" as="geometry" />
        </mxCell>
        <mxCell id="fpEOohyaUf4AS9DzYO2--35" value="&lt;b&gt;true&lt;/b&gt;" style="endArrow=classic;html=1;rounded=0;exitX=0;exitY=0.5;exitDx=0;exitDy=0;exitPerimeter=0;fillColor=#dae8fc;strokeColor=#6c8ebf;jumpSize=20;strokeWidth=3;labelBackgroundColor=#d5e8d4;edgeStyle=orthogonalEdgeStyle;entryX=0.556;entryY=0;entryDx=0;entryDy=0;entryPerimeter=0;" edge="1" parent="1" source="fpEOohyaUf4AS9DzYO2--30" target="fpEOohyaUf4AS9DzYO2--31">
          <mxGeometry x="-0.2941" y="26" width="50" height="50" relative="1" as="geometry">
            <mxPoint x="820" y="540" as="sourcePoint" />
            <mxPoint x="654" y="645" as="targetPoint" />
            <mxPoint as="offset" />
          </mxGeometry>
        </mxCell>
        <mxCell id="fpEOohyaUf4AS9DzYO2--36" value="&lt;b&gt;condition3&lt;/b&gt;" style="strokeWidth=3;html=1;shape=mxgraph.flowchart.decision;whiteSpace=wrap;fillColor=#dae8fc;strokeColor=#6c8ebf;" vertex="1" parent="1">
          <mxGeometry x="1330" y="645" width="140" height="70" as="geometry" />
        </mxCell>
        <mxCell id="fpEOohyaUf4AS9DzYO2--38" value="&lt;b&gt;false&lt;/b&gt;" style="endArrow=classic;html=1;rounded=0;fillColor=#dae8fc;strokeColor=#6c8ebf;jumpSize=20;strokeWidth=3;labelBackgroundColor=#d5e8d4;edgeStyle=orthogonalEdgeStyle;entryX=0.5;entryY=0;entryDx=0;entryDy=0;entryPerimeter=0;exitX=1;exitY=0.5;exitDx=0;exitDy=0;exitPerimeter=0;" edge="1" parent="1" source="fpEOohyaUf4AS9DzYO2--30" target="fpEOohyaUf4AS9DzYO2--36">
          <mxGeometry x="-0.7099" y="-25" width="50" height="50" relative="1" as="geometry">
            <mxPoint x="1020" y="541" as="sourcePoint" />
            <mxPoint x="1402" y="640" as="targetPoint" />
            <mxPoint as="offset" />
          </mxGeometry>
        </mxCell>
        <mxCell id="fpEOohyaUf4AS9DzYO2--39" value="&lt;b&gt;true&lt;/b&gt;" style="endArrow=classic;html=1;rounded=0;exitX=0;exitY=0.5;exitDx=0;exitDy=0;exitPerimeter=0;fillColor=#dae8fc;strokeColor=#6c8ebf;jumpSize=20;strokeWidth=3;labelBackgroundColor=#d5e8d4;edgeStyle=orthogonalEdgeStyle;entryX=0.5;entryY=0.042;entryDx=0;entryDy=0;entryPerimeter=0;" edge="1" parent="1" source="fpEOohyaUf4AS9DzYO2--36" target="fpEOohyaUf4AS9DzYO2--40">
          <mxGeometry x="-0.2941" y="26" width="50" height="50" relative="1" as="geometry">
            <mxPoint x="1319" y="680" as="sourcePoint" />
            <mxPoint x="1198" y="790" as="targetPoint" />
            <mxPoint as="offset" />
          </mxGeometry>
        </mxCell>
        <mxCell id="fpEOohyaUf4AS9DzYO2--46" style="edgeStyle=orthogonalEdgeStyle;rounded=0;orthogonalLoop=1;jettySize=auto;html=1;exitX=0.5;exitY=1;exitDx=0;exitDy=0;strokeWidth=3;fillColor=#dae8fc;strokeColor=#6c8ebf;" edge="1" parent="1" source="fpEOohyaUf4AS9DzYO2--40" target="fpEOohyaUf4AS9DzYO2--7">
          <mxGeometry relative="1" as="geometry">
            <Array as="points">
              <mxPoint x="1198" y="1090" />
              <mxPoint x="414" y="1090" />
            </Array>
          </mxGeometry>
        </mxCell>
        <mxCell id="fpEOohyaUf4AS9DzYO2--40" value="&lt;b&gt;Bloc de codi de la sentència&lt;br&gt;IF-ELSE (1)&lt;br&gt;&lt;/b&gt;" style="rounded=0;whiteSpace=wrap;html=1;fillColor=#ffe6cc;strokeColor=#d79b00;strokeWidth=3;" vertex="1" parent="1">
          <mxGeometry x="1100" y="787.5" width="196" height="60" as="geometry" />
        </mxCell>
        <mxCell id="fpEOohyaUf4AS9DzYO2--41" value="4" style="ellipse;whiteSpace=wrap;html=1;aspect=fixed;fillColor=#f8cecc;strokeColor=#b85450;fontStyle=1" vertex="1" parent="1">
          <mxGeometry x="1280" y="832.5" width="30" height="30" as="geometry" />
        </mxCell>
        <mxCell id="fpEOohyaUf4AS9DzYO2--47" style="edgeStyle=orthogonalEdgeStyle;rounded=0;orthogonalLoop=1;jettySize=auto;html=1;strokeWidth=3;fillColor=#dae8fc;strokeColor=#6c8ebf;" edge="1" parent="1" source="fpEOohyaUf4AS9DzYO2--42" target="fpEOohyaUf4AS9DzYO2--7">
          <mxGeometry relative="1" as="geometry">
            <Array as="points">
              <mxPoint x="1598" y="1090" />
              <mxPoint x="414" y="1090" />
            </Array>
          </mxGeometry>
        </mxCell>
        <mxCell id="fpEOohyaUf4AS9DzYO2--42" value="&lt;b&gt;Bloc de codi de la sentència&lt;br&gt;&lt;/b&gt;&lt;div&gt;&lt;b&gt;ELSE&lt;/b&gt;&lt;/div&gt;" style="rounded=0;whiteSpace=wrap;html=1;fillColor=#ffe6cc;strokeColor=#d79b00;strokeWidth=3;" vertex="1" parent="1">
          <mxGeometry x="1500" y="787.5" width="196" height="60" as="geometry" />
        </mxCell>
        <mxCell id="fpEOohyaUf4AS9DzYO2--43" value="5" style="ellipse;whiteSpace=wrap;html=1;aspect=fixed;fillColor=#f8cecc;strokeColor=#b85450;fontStyle=1" vertex="1" parent="1">
          <mxGeometry x="1680" y="825" width="30" height="30" as="geometry" />
        </mxCell>
        <mxCell id="fpEOohyaUf4AS9DzYO2--44" value="&lt;b&gt;false&lt;/b&gt;" style="endArrow=classic;html=1;rounded=0;fillColor=#dae8fc;strokeColor=#6c8ebf;jumpSize=20;strokeWidth=3;labelBackgroundColor=#d5e8d4;edgeStyle=orthogonalEdgeStyle;entryX=0.5;entryY=0;entryDx=0;entryDy=0;exitX=1;exitY=0.5;exitDx=0;exitDy=0;exitPerimeter=0;" edge="1" parent="1" source="fpEOohyaUf4AS9DzYO2--36" target="fpEOohyaUf4AS9DzYO2--42">
          <mxGeometry x="-0.7099" y="-25" width="50" height="50" relative="1" as="geometry">
            <mxPoint x="1500" y="682.5" as="sourcePoint" />
            <mxPoint x="1922" y="787.5" as="targetPoint" />
            <mxPoint as="offset" />
          </mxGeometry>
        </mxCell>
        <mxCell id="fpEOohyaUf4AS9DzYO2--48" value="6" style="ellipse;whiteSpace=wrap;html=1;aspect=fixed;fillColor=#f8cecc;strokeColor=#b85450;fontStyle=1" vertex="1" parent="1">
          <mxGeometry x="490" y="1270" width="30" height="30" as="geometry" />
        </mxCell>
      </root>
    </mxGraphModel>
  </diagram>
</mxfile>
